<svg width="83" height="69" viewBox="0 0 83 69" fill="none" xmlns="http://www.w3.org/2000/svg">
<path d="M43.6732 34.3535L42.1274 32.226L39.6396 32.7525L41.1721 30.9111L39.6263 28.7836L42.1192 29.7731L43.6516 27.9317L43.6599 30.3846L46.1528 31.3742L43.6649 31.9006L43.6732 34.3535Z" fill="#FC9E1C" fill-opacity="0.45"/>
<path d="M56.691 23.8258L57.7129 22.1483L56.7657 20.4436L58.8897 21.2507L61.0481 20.5027L60.0262 22.1802L60.9734 23.8848L58.8494 23.0777L56.691 23.8258Z" fill="#DCBCFA" fill-opacity="0.75"/>
<path d="M39.3125 40.9993L38.2075 40.8795L38.254 41.7596L37.6837 41.0026L36.8414 41.5801L37.2352 40.7559L36.1384 40.5959L37.1998 40.3252L36.6743 39.5481L37.6041 40.0348L38.0457 39.2258L38.1437 40.1033L39.2198 39.8717L38.4122 40.4793L39.3125 40.9993Z" fill="#BA3E03" fill-opacity="0.65"/>
<ellipse cx="62.9435" cy="34.7482" rx="0.943548" ry="0.748153" fill="#FF21FB" fill-opacity="0.9"/>
<ellipse cx="34.7331" cy="1.37422" rx="1.73313" ry="1.37422" fill="#9AF5FC" fill-opacity="0.65"/>
<ellipse cx="10.9479" cy="41.6534" rx="0.943548" ry="0.748153" fill="#755FFE" fill-opacity="0.6"/>
<path d="M25.6114 17.919L21.2279 19.1158L22.1125 15.5073L25.6114 17.919Z" fill="#BA3E03" fill-opacity="0.35"/>
<path d="M73.0763 6.60987L68.9996 10.0537L65.077 6.49916L69.1537 3.05536L73.0763 6.60987Z" fill="#9AF5FC" fill-opacity="0.45"/>
<path d="M35.9045 50.4318L36.7888 54.4985L32.1788 56.4531L28.4453 53.5943L30.7479 49.873L35.9045 50.4318Z" fill="#FF21FB" fill-opacity="0.85"/>
<path d="M11.9894 4.10637L11.4208 5.70948L13.0496 6.51331L11.0695 6.70026L10.501 8.30337L9.84566 6.8158L7.86549 7.00275L9.44067 5.89643L8.78537 4.40886L10.4142 5.21269L11.9894 4.10637Z" fill="#F62584"/>
<path d="M5.1799 49.204L6.99086 49.3168L7.38643 47.694L7.99998 49.1596L9.75582 48.4915L8.55842 49.8444L9.91869 50.799L8.10773 50.6862L7.71217 52.309L7.09862 50.8434L5.34277 51.5115L6.54018 50.1586L5.1799 49.204Z" fill="#FFED36" fill-opacity="0.45"/>
<path d="M46.9866 55.3199L48.3408 55.1498L48.5553 54.0761L49.1777 55.0447L50.5319 54.8747L49.5624 55.6434L50.1849 56.612L48.9632 56.1185L47.9938 56.8872L48.2082 55.8135L46.9866 55.3199Z" fill="#FC9E1C" fill-opacity="0.85"/>
<path d="M46.497 68.1279L45.745 65.1753L43.2638 63.9913L45.8875 63.0193L47.0246 60.1453L47.7765 63.0978L50.2578 64.2819L47.634 65.2538L46.497 68.1279Z" fill="#9AF5FC"/>
<path d="M75.6936 31.6581L77.9931 27.9345L80.9265 31.3691L75.6936 31.6581Z" fill="#FFED36" fill-opacity="0.85"/>
<path d="M45.1452 3.89479L46.2618 0.819532L49.0757 3.12084L45.1452 3.89479Z" fill="#C9FCBE" fill-opacity="0.9"/>
<path d="M53.242 11.9298L51.7356 12.8932L50.11 12.0595L50.6117 10.5808L52.5473 10.5007L53.242 11.9298Z" fill="#03A3F5" fill-opacity="0.85"/>
<path d="M68.9731 50.88L70.1513 47.4699L67.8073 44.7271L71.9054 45.4161L75.4674 43.2759L74.2892 46.686L76.6332 49.4287L72.5351 48.7398L68.9731 50.88Z" fill="#03A3F5" fill-opacity="0.75"/>
<path d="M4.02459 29.1279L2.88754 26.2539L0.263807 25.2819L2.74504 24.0979L3.49698 21.1453L4.63404 24.0194L7.25777 24.9913L4.77654 26.1754L4.02459 29.1279Z" fill="#C9FCBE" fill-opacity="0.75"/>
</svg>
